<svg width="24" height="24" viewBox="0 0 24 24" fill="none" xmlns="http://www.w3.org/2000/svg">
<mask id="mask0_1566_2279" style="mask-type:alpha" maskUnits="userSpaceOnUse" x="-1" y="-1" width="26" height="26">
<rect x="-0.075" y="-0.075" width="24.15" height="24.15" fill="#D9D9D9" stroke="black" stroke-width="0.15"/>
</mask>
<g mask="url(#mask0_1566_2279)">
<path d="M7.55412 11.1751L12.5799 6.14929C12.5799 6.14929 12.5799 6.14929 12.5799 6.14929C12.7477 5.9815 12.8346 5.78472 12.8346 5.56166C12.8346 5.33859 12.7477 5.14181 12.5799 4.97402L12.58 4.97399L12.5781 4.97224C12.4094 4.81468 12.211 4.73605 11.9863 4.73957C11.7633 4.74306 11.573 4.82112 11.4201 4.97403M7.55412 11.1751L11.4201 4.97402L11.4201 4.97403M7.55412 11.1751H18.75C18.9816 11.1751 19.1792 11.2541 19.3376 11.4125C19.496 11.5709 19.575 11.7685 19.575 12.0001C19.575 12.2318 19.496 12.4294 19.3376 12.5877C19.1792 12.7461 18.9816 12.8251 18.75 12.8251H7.55412L12.5953 17.8663C12.7574 18.0284 12.8396 18.2215 12.8375 18.4422C12.8353 18.6632 12.7474 18.8587 12.5799 19.0262L12.5781 19.028L12.5781 19.028C12.4108 19.1842 12.218 19.2675 12.002 19.2731C11.7827 19.2789 11.5878 19.194 11.4201 19.0262L5.0797 12.6858L7.55412 11.1751ZM11.4201 4.97403L5.0797 11.3144C4.97994 11.4142 4.9072 11.5218 4.86432 11.6375C4.82251 11.7504 4.80195 11.8715 4.80195 12.0001C4.80195 12.1287 4.82251 12.2498 4.86432 12.3627L11.4201 4.97403Z" fill="#24262B" stroke="#24262B" stroke-width="0.15"/>
</g>
</svg>
