<svg width="24" height="24" viewBox="0 0 24 24" fill="none" xmlns="http://www.w3.org/2000/svg">
<mask id="mask0_1658_1974" style="mask-type:alpha" maskUnits="userSpaceOnUse" x="-1" y="-1" width="26" height="26">
<rect x="-0.1" y="-0.1" width="24.2" height="24.2" fill="#D9D9D9" stroke="black" stroke-width="0.2"/>
</mask>
<g mask="url(#mask0_1658_1974)">
<path d="M2.11861 12.5863L2.04914 12.6145C2.13253 12.8194 2.26041 13.0035 2.43146 13.1667L2.43151 13.1668L9.39038 19.7961L2.11861 12.5863ZM2.11861 12.5863L2.04914 12.6145C1.96671 12.412 1.925 12.2081 1.925 12.0034C1.925 11.7987 1.96671 11.5948 2.04914 11.3923L2.04915 11.3923C2.13254 11.1874 2.26043 11.0034 2.43146 10.8401L9.39038 4.19738C9.5849 4.01169 9.81855 3.9204 10.0872 3.92518L10.0859 4.00017L10.0872 3.92518C10.3549 3.92996 10.5875 4.02564 10.7814 4.2107C10.9753 4.39584 11.075 4.6176 11.075 4.87275C11.075 5.12791 10.9753 5.34969 10.7814 5.53482L4.00489 12.0034M2.11861 12.5863L4.00489 12.0034M4.00489 12.0034L10.7814 18.472C10.9757 18.6575 11.0731 18.8799 11.068 19.1356C11.0629 19.3902 10.961 19.6113 10.7674 19.7961C10.5735 19.9812 10.3429 20.075 10.0789 20.075C9.81497 20.075 9.58431 19.9812 9.39043 19.7962L4.00489 12.0034Z" fill="#24262B" stroke="#24262B" stroke-width="0.15"/>
</g>
</svg>
