<svg width="24" height="24" viewBox="0 0 24 24" fill="none" xmlns="http://www.w3.org/2000/svg">
<mask id="mask0_1442_392" style="mask-type:alpha" maskUnits="userSpaceOnUse" x="0" y="0" width="24" height="24">
<rect width="24" height="24" fill="#D9D9D9"/>
</mask>
<g mask="url(#mask0_1442_392)">
<path d="M20.8276 12.7495H18.7123C18.4994 12.7495 18.3212 12.6777 18.1777 12.5342C18.0341 12.3906 17.9623 12.2124 17.9623 11.9996C17.9623 11.7867 18.0341 11.6085 18.1777 11.465C18.3212 11.3214 18.4994 11.2496 18.7123 11.2496H20.8276C21.0404 11.2496 21.2187 11.3214 21.3623 11.465C21.5058 11.6085 21.5776 11.7867 21.5776 11.9996C21.5776 12.2124 21.5058 12.3906 21.3623 12.5342C21.2187 12.6777 21.0404 12.7495 20.8276 12.7495ZM16.6681 16.713C16.7963 16.5374 16.96 16.4361 17.1594 16.4092C17.3587 16.3823 17.5462 16.4329 17.7219 16.5611L19.4084 17.8284C19.584 17.9566 19.6853 18.1204 19.7123 18.3197C19.7392 18.5191 19.6885 18.7066 19.5603 18.8822C19.4321 19.0579 19.2684 19.1591 19.069 19.1861C18.8696 19.213 18.6821 19.1624 18.5065 19.0342L16.82 17.7668C16.6443 17.6386 16.543 17.4749 16.5161 17.2755C16.4892 17.0761 16.5398 16.8886 16.6681 16.713ZM19.37 6.13223L17.6834 7.39956C17.5078 7.52776 17.3203 7.5784 17.1209 7.55149C16.9216 7.52455 16.7578 7.42327 16.6296 7.24763C16.5014 7.072 16.4507 6.88451 16.4777 6.68516C16.5046 6.48581 16.6059 6.32203 16.7815 6.19381L18.4681 4.92651C18.6437 4.79831 18.8312 4.74767 19.0305 4.77458C19.2299 4.8015 19.3937 4.90279 19.5219 5.07844C19.6501 5.25407 19.7007 5.44156 19.6738 5.64091C19.6469 5.84026 19.5456 6.00403 19.37 6.13223ZM5.25075 14.5765H4.2315C3.7328 14.5765 3.30684 14.3999 2.95363 14.0467C2.60043 13.6934 2.42383 13.2675 2.42383 12.7688V11.2303C2.42383 10.7316 2.60043 10.3057 2.95363 9.95246C3.30684 9.59926 3.7328 9.42266 4.2315 9.42266H8.09688L11.2065 7.56306C11.5078 7.38229 11.8116 7.38069 12.118 7.55826C12.4244 7.73583 12.5776 7.99704 12.5776 8.34191V15.6572C12.5776 16.0021 12.4244 16.2633 12.118 16.4409C11.8116 16.6184 11.5078 16.6168 11.2065 16.4361L8.09688 14.5765H6.7507V17.7303C6.7507 17.9431 6.67891 18.1213 6.53533 18.2649C6.39174 18.4085 6.21354 18.4803 6.00073 18.4803C5.78791 18.4803 5.60971 18.4085 5.46613 18.2649C5.32254 18.1213 5.25075 17.9431 5.25075 17.7303V14.5765ZM11.0777 14.5842V9.41493L8.51225 10.9226H4.2315C4.15459 10.9226 4.08407 10.9547 4.01995 11.0188C3.95585 11.0829 3.9238 11.1534 3.9238 11.2303V12.7688C3.9238 12.8457 3.95585 12.9162 4.01995 12.9803C4.08407 13.0444 4.15459 13.0765 4.2315 13.0765H8.51225L11.0777 14.5842ZM13.9623 15.1188V8.88034C14.3546 9.23547 14.6706 9.6829 14.9103 10.2226C15.1501 10.7624 15.27 11.3547 15.27 11.9996C15.27 12.6444 15.1501 13.2367 14.9103 13.7765C14.6706 14.3162 14.3546 14.7637 13.9623 15.1188Z" fill="#24262B"/>
</g>
</svg>
