<svg width="20" height="20" viewBox="0 0 20 20" fill="none" xmlns="http://www.w3.org/2000/svg">
<mask id="mask0_1663_295" style="mask-type:alpha" maskUnits="userSpaceOnUse" x="0" y="0" width="20" height="20">
<rect width="20" height="20" fill="#D9D9D9"/>
</mask>
<g mask="url(#mask0_1663_295)">
<path fill-rule="evenodd" clip-rule="evenodd" d="M9.75098 5.97765V8.60498L11.6051 10.48C11.7579 10.6277 11.8343 10.8001 11.8343 10.997C11.8343 11.194 11.7579 11.3689 11.6051 11.5216C11.4524 11.6744 11.275 11.7508 11.073 11.7508C10.8709 11.7508 10.6942 11.6744 10.5426 11.5216L8.48014 9.45915C8.4107 9.3897 8.35514 9.30858 8.31348 9.21577C8.27181 9.12297 8.25098 9.02354 8.25098 8.91748V5.97998C8.25098 5.76748 8.32389 5.58935 8.46973 5.44561C8.61556 5.30186 8.79411 5.22998 9.00537 5.22998C9.21662 5.22998 9.39371 5.3029 9.53662 5.44873C9.67953 5.59456 9.75098 5.77087 9.75098 5.97765ZM3.56348 13.6424C4.60514 14.9091 5.91764 15.7161 7.50098 16.0633V15.98C7.50098 15.0772 7.81638 14.3098 8.44719 13.6779C9.07798 13.046 9.84591 12.73 10.751 12.73H15.0635C15.369 12.2161 15.6017 11.664 15.7614 11.0737C15.9211 10.4835 16.001 9.86887 16.001 9.22998C16.001 7.28554 15.3204 5.63276 13.9593 4.27165C12.5982 2.91054 10.9454 2.22998 9.00098 2.22998C7.05653 2.22998 5.40375 2.91054 4.04264 4.27165C2.68153 5.63276 2.00098 7.28277 2.00098 9.22167C2.00098 10.902 2.52181 12.3756 3.56348 13.6424Z" fill="#6B6F78"/>
<path fill-rule="evenodd" clip-rule="evenodd" d="M10.751 17.73H15.751C16.2322 17.73 16.6442 17.5581 16.9869 17.2144C17.3296 16.8707 17.501 16.4575 17.501 15.9748C17.501 15.4921 17.3296 15.0807 16.9869 14.7404C16.6442 14.4001 16.2322 14.23 15.751 14.23H10.751C10.2697 14.23 9.85775 14.4018 9.51504 14.7456C9.17233 15.0893 9.00098 15.5025 9.00098 15.9851C9.00098 16.4678 9.17233 16.8793 9.51504 17.2196C9.85775 17.5598 10.2697 17.73 10.751 17.73ZM15.7554 16.73C15.5441 16.73 15.3656 16.6585 15.2197 16.5156C15.0739 16.3727 15.001 16.1956 15.001 15.9844C15.001 15.7731 15.0724 15.5946 15.2153 15.4487C15.3582 15.3029 15.5353 15.23 15.7466 15.23C15.9578 15.23 16.1364 15.3014 16.2822 15.4443C16.4281 15.5873 16.501 15.7643 16.501 15.9756C16.501 16.1868 16.4295 16.3654 16.2866 16.5112C16.1437 16.6571 15.9666 16.73 15.7554 16.73ZM12.7197 16.5156C12.8656 16.6585 13.0441 16.73 13.2554 16.73C13.4666 16.73 13.6437 16.6571 13.7866 16.5112C13.9295 16.3654 14.001 16.1868 14.001 15.9756C14.001 15.7643 13.9281 15.5873 13.7822 15.4443C13.6364 15.3014 13.4578 15.23 13.2466 15.23C13.0353 15.23 12.8582 15.3029 12.7153 15.4487C12.5724 15.5946 12.501 15.7731 12.501 15.9844C12.501 16.1956 12.5739 16.3727 12.7197 16.5156ZM10.7554 16.73C10.5441 16.73 10.3656 16.6585 10.2197 16.5156C10.0739 16.3727 10.001 16.1956 10.001 15.9844C10.001 15.7731 10.0724 15.5946 10.2153 15.4487C10.3582 15.3029 10.5353 15.23 10.7466 15.23C10.9578 15.23 11.1364 15.3014 11.2822 15.4443C11.4281 15.5873 11.501 15.7643 11.501 15.9756C11.501 16.1868 11.4295 16.3654 11.2866 16.5112C11.1437 16.6571 10.9666 16.73 10.7554 16.73Z" fill="#7000FF"/>
</g>
</svg>
