<svg width="24" height="24" viewBox="0 0 24 24" fill="none" xmlns="http://www.w3.org/2000/svg">
<mask id="mask0_1539_706" style="mask-type:alpha" maskUnits="userSpaceOnUse" x="-1" y="-1" width="26" height="26">
<rect x="-0.075" y="-0.075" width="24.15" height="24.15" fill="#D9D9D9" stroke="black" stroke-width="0.15"/>
</mask>
<g mask="url(#mask0_1539_706)">
<path d="M2.58113 14.4707L2.58113 14.4707C2.68438 14.3316 2.82245 14.2364 2.99259 14.1854C3.41647 13.9873 3.76078 13.6943 4.02655 13.3053C4.29218 12.9165 4.425 12.482 4.425 11.9996C4.425 11.5171 4.29218 11.0827 4.02656 10.6942C3.7608 10.3055 3.41648 10.0126 2.99259 9.81451C2.82245 9.76354 2.68438 9.66834 2.58113 9.52928L2.58113 9.52928C2.47692 9.3889 2.425 9.22757 2.425 9.04803V6.3077C2.425 5.79054 2.61002 5.34595 2.97799 4.97799L2.58113 14.4707ZM2.58113 14.4707C2.47692 14.611 2.425 14.7724 2.425 14.9519V17.6923C2.425 18.2094 2.61002 18.654 2.97799 19.022C3.34594 19.3899 3.79053 19.575 4.3077 19.575M2.58113 14.4707L4.3077 19.575M4.3077 19.575H19.6923C20.2094 19.575 20.654 19.3899 21.022 19.022C21.3899 18.654 21.575 18.2094 21.575 17.6923V14.9519C21.575 14.7724 21.523 14.611 21.4188 14.4707C21.3156 14.3316 21.1775 14.2364 21.0074 14.1854C20.5835 13.9873 20.2392 13.6944 19.9734 13.3057C19.7078 12.9172 19.575 12.4828 19.575 12.0004C19.575 11.5179 19.7078 11.0834 19.9734 10.6946C20.2392 10.3056 20.5835 10.0126 21.0074 9.81451C21.1775 9.76354 21.3156 9.66834 21.4188 9.52928C21.523 9.3889 21.575 9.22757 21.575 9.04803V6.3077C21.575 5.79053 21.3899 5.34594 21.022 4.97799C20.654 4.61002 20.2094 4.425 19.6923 4.425H4.3077C3.79053 4.425 3.34595 4.61002 2.97799 4.97799L4.3077 19.575ZM11.4123 11.4127L11.4654 11.4657L11.4123 11.4127C11.254 11.5713 11.175 11.7689 11.175 12.0003C11.175 12.2318 11.2541 12.4293 11.4127 12.5876L11.4636 12.5367L11.4127 12.5877C11.5713 12.746 11.7689 12.825 12.0003 12.825C12.2318 12.825 12.4293 12.7458 12.5876 12.5872L12.5346 12.5343L12.5877 12.5872C12.746 12.4287 12.825 12.2311 12.825 11.9997C12.825 11.7682 12.7458 11.5707 12.5872 11.4123L12.5343 11.4654L12.5872 11.4123C12.4287 11.254 12.2311 11.175 11.9997 11.175C11.7682 11.175 11.5707 11.2541 11.4123 11.4127ZM12.5872 15.3161L12.5872 15.3161C12.4287 15.1578 12.2311 15.0788 11.9997 15.0788C11.7682 15.0788 11.5707 15.1579 11.4123 15.3166C11.254 15.4751 11.175 15.6727 11.175 15.9042C11.175 16.1356 11.2541 16.3331 11.4127 16.4915L11.4127 16.4915C11.5713 16.6498 11.7689 16.7288 12.0003 16.7288C12.2318 16.7288 12.4293 16.6497 12.5877 16.4911C12.746 16.3325 12.825 16.1349 12.825 15.9035C12.825 15.672 12.7458 15.4745 12.5872 15.3161ZM12.5872 7.50846L12.5872 7.50845C12.4287 7.35012 12.2311 7.27115 11.9997 7.27115C11.7682 7.27115 11.5707 7.35027 11.4123 7.50889C11.254 7.66745 11.175 7.86503 11.175 8.09648C11.175 8.32795 11.2541 8.52545 11.4127 8.68382L11.4127 8.68383C11.5713 8.84215 11.7689 8.92113 12.0003 8.92113C12.2318 8.92113 12.4293 8.84201 12.5877 8.68339C12.746 8.52481 12.825 8.32723 12.825 8.0958C12.825 7.86433 12.7458 7.66683 12.5872 7.50846ZM19.6923 17.925H4.3077C4.23566 17.925 4.18172 17.9026 4.13956 17.8604C4.0974 17.8182 4.07498 17.7643 4.07498 17.6923V15.4924C4.68502 15.122 5.16939 14.6328 5.5271 14.0255C5.89233 13.4055 6.07498 12.7298 6.07498 12C6.07498 11.2701 5.89233 10.5945 5.5271 9.97441C5.16939 9.36714 4.68502 8.87799 4.07498 8.50754V6.3077C4.07498 6.23566 4.0974 6.18172 4.13956 6.13956C4.18172 6.0974 4.23566 6.07498 4.3077 6.07498H19.6923C19.7643 6.07498 19.8182 6.0974 19.8604 6.13956C19.9026 6.18172 19.925 6.23566 19.925 6.3077V8.50755C19.3149 8.87799 18.8306 9.36714 18.4729 9.97441C18.1076 10.5945 17.925 11.2701 17.925 12C17.925 12.7298 18.1076 13.4055 18.4729 14.0255C18.8306 14.6328 19.3149 15.122 19.925 15.4924V17.6923C19.925 17.7643 19.9026 17.8182 19.8604 17.8604C19.8182 17.9026 19.7643 17.925 19.6923 17.925Z" fill="#24262B" stroke="#24262B" stroke-width="0.15"/>
</g>
</svg>
