<svg width="20" height="20" viewBox="0 0 20 20" fill="none" xmlns="http://www.w3.org/2000/svg">
<mask id="mask0_1629_4982" style="mask-type:alpha" maskUnits="userSpaceOnUse" x="0" y="0" width="20" height="20">
<rect width="20" height="20" fill="#D9D9D9"/>
</mask>
<g mask="url(#mask0_1629_4982)">
<path d="M4.5 17C4.0875 17 3.73437 16.8531 3.44062 16.5594C3.14687 16.2656 3 15.9125 3 15.5V4.5C3 4.08178 3.14583 3.72375 3.4375 3.42592C3.72917 3.12808 4.08333 2.98611 4.5 3H11.7083L10.2083 4.5H4.5V15.5H15.5V9.79167L17 8.29167V15.5C17 15.9125 16.8531 16.2656 16.5594 16.5594C16.2656 16.8531 15.9125 17 15.5 17H4.5ZM8 12V8.8125L15.375 1.4375C15.5278 1.28472 15.6944 1.17361 15.875 1.10417C16.0556 1.03472 16.2396 1 16.4271 1C16.6271 1 16.8177 1.03472 16.999 1.10417C17.1802 1.17361 17.3468 1.28322 17.4988 1.43298L18.5625 2.5C18.7153 2.65278 18.8264 2.82071 18.8958 3.00379C18.9653 3.18688 19 3.37311 19 3.5625C19 3.75224 18.9651 3.93881 18.8954 4.12221C18.8256 4.30561 18.7147 4.47321 18.5625 4.625L11.1875 12H8ZM9.5 10.5H10.5625L15.375 5.6875L14.8542 5.14583L14.3125 4.625L9.5 9.4375V10.5Z" fill="#777C85"/>
</g>
</svg>
