<svg width="24" height="24" viewBox="0 0 24 24" fill="none" xmlns="http://www.w3.org/2000/svg">
<mask id="mask0_1539_746" style="mask-type:alpha" maskUnits="userSpaceOnUse" x="-1" y="-1" width="26" height="26">
<rect x="-0.075" y="-0.075" width="24.15" height="24.15" fill="#D9D9D9" stroke="#363A40" stroke-width="0.15"/>
</mask>
<g mask="url(#mask0_1539_746)">
<path d="M6.229 6.36794L6.22816 6.36825L6.20192 6.29799C6.13781 6.32362 6.08812 6.36209 6.05287 6.41339L6.229 6.36794ZM6.229 6.36794C6.17748 6.38868 6.14051 6.41828 6.11469 6.45586L6.11467 6.45589C6.08827 6.49427 6.07497 6.53706 6.07497 6.58646V11.0999C6.07497 13.1015 6.63711 14.92 7.7618 16.5575C8.88173 18.1879 10.2943 19.2744 12 19.8212C13.7056 19.2744 15.1182 18.1879 16.2382 16.5575C17.3628 14.92 17.925 13.1015 17.925 11.0999V6.58646C17.925 6.53706 17.9117 6.49428 17.8853 6.45589L17.8853 6.45586C17.8594 6.41828 17.8225 6.38868 17.7709 6.36794L12.0795 4.24325L12.0779 4.24265L12.0779 4.24263C12.0557 4.23374 12.03 4.22876 12 4.22876C11.97 4.22876 11.9443 4.23374 11.922 4.24263L11.9204 4.24327L11.9204 4.24325L6.229 6.36794ZM10.8738 14.63C10.9858 14.7571 11.123 14.8249 11.2827 14.8249H12.7173L13.0699 14.5804L13.1262 14.63C13.1262 14.63 13.1262 14.63 13.1262 14.63C13.2399 14.5009 13.2814 14.3527 13.2426 14.192L12.7785 11.6367C13.081 11.4955 13.327 11.2825 13.5153 10.9987C13.7152 10.6976 13.8153 10.364 13.8153 9.99991C13.8153 9.50125 13.6368 9.07251 13.2818 8.71774C12.9269 8.36296 12.4979 8.18454 11.9991 8.18454C11.5001 8.18454 11.0715 8.36297 10.7171 8.71779C10.3628 9.07257 10.1846 9.5013 10.1846 9.99991C10.1846 10.364 10.2847 10.6976 10.4846 10.9987C10.673 11.2825 10.9189 11.4955 11.2215 11.6367L10.7574 14.192C10.7186 14.3527 10.7601 14.5009 10.8738 14.63ZM10.8738 14.63L10.93 14.5804L10.8738 14.63C10.8738 14.63 10.8738 14.63 10.8738 14.63ZM5.64877 4.8393L5.64877 4.83929L5.64747 4.8398C5.28755 4.98184 4.99354 5.21121 4.76675 5.52671C4.539 5.84356 4.425 6.20078 4.425 6.59609V11.0999C4.425 13.3265 5.0529 15.4012 6.3074 17.3226C7.56297 19.2457 9.25388 20.5861 11.3785 21.3417C11.4764 21.3765 11.5776 21.4026 11.6819 21.42C11.786 21.4374 11.8921 21.446 12 21.446C12.1079 21.446 12.2139 21.4374 12.3181 21.42C12.4224 21.4026 12.5235 21.3765 12.6215 21.3417C14.7461 20.5861 16.437 19.2457 17.6925 17.3226C18.947 15.4012 19.575 13.3265 19.575 11.0999V6.59609C19.575 6.20078 19.4609 5.84356 19.2332 5.52671C19.0064 5.21121 18.7124 4.98184 18.3525 4.8398L18.3525 4.83979L18.3512 4.8393L12.6589 2.7143L12.6589 2.7143L12.658 2.71398C12.4365 2.63442 12.2171 2.59419 12 2.59419C11.7829 2.59419 11.5634 2.63442 11.3419 2.71398L11.3419 2.71398L11.3411 2.7143L5.64877 4.8393Z" fill="#24262B" stroke="#363A40" stroke-width="0.15"/>
</g>
</svg>
