<svg width="20" height="20" viewBox="0 0 20 20" fill="none" xmlns="http://www.w3.org/2000/svg">
<mask id="mask0_1566_3085" style="mask-type:alpha" maskUnits="userSpaceOnUse" x="0" y="0" width="20" height="20">
<rect width="20" height="20" fill="#D9D9D9"/>
</mask>
<g mask="url(#mask0_1566_3085)">
<path d="M8.75 14.5C8.5375 14.5 8.35938 14.4285 8.21563 14.2856C8.07188 14.1427 8 13.9656 8 13.7544C8 13.5431 8.07188 13.3646 8.21563 13.2188C8.35938 13.0729 8.5375 13 8.75 13H11.25C11.4625 13 11.6406 13.0715 11.7844 13.2144C11.9281 13.3573 12 13.5344 12 13.7456C12 13.9569 11.9281 14.1354 11.7844 14.2812C11.6406 14.4271 11.4625 14.5 11.25 14.5H8.75ZM5.75 10.75C5.5375 10.75 5.35938 10.6785 5.21563 10.5356C5.07188 10.3927 5 10.2156 5 10.0044C5 9.79313 5.07188 9.61458 5.21563 9.46875C5.35938 9.32292 5.5375 9.25 5.75 9.25H14.25C14.4625 9.25 14.6406 9.32145 14.7844 9.46435C14.9281 9.60727 15 9.78435 15 9.9956C15 10.2069 14.9281 10.3854 14.7844 10.5312C14.6406 10.6771 14.4625 10.75 14.25 10.75H5.75ZM3.75 7C3.5375 7 3.35938 6.92855 3.21563 6.78565C3.07188 6.64273 3 6.46565 3 6.2544C3 6.04313 3.07188 5.86458 3.21563 5.71875C3.35938 5.57292 3.5375 5.5 3.75 5.5H16.25C16.4625 5.5 16.6406 5.57145 16.7844 5.71435C16.9281 5.85727 17 6.03435 17 6.2456C17 6.45687 16.9281 6.63542 16.7844 6.78125C16.6406 6.92708 16.4625 7 16.25 7H3.75Z" fill="#777C85"/>
</g>
</svg>
