<svg width="24" height="24" viewBox="0 0 24 24" fill="none" xmlns="http://www.w3.org/2000/svg">
<mask id="mask0_1535_243" style="mask-type:alpha" maskUnits="userSpaceOnUse" x="-1" y="-1" width="26" height="26">
<rect x="-0.075" y="-0.075" width="24.15" height="24.15" fill="#D9D9D9" stroke="#B2B7BF" stroke-width="0.15"/>
</mask>
<g mask="url(#mask0_1535_243)">
<path d="M3.41268 3.16258L3.41268 3.16258C3.25411 3.32109 3.175 3.51859 3.175 3.74998V18.6923C3.175 19.2168 3.35758 19.6636 3.72197 20.028C4.08634 20.3924 4.53311 20.575 5.05768 20.575H20C20.2313 20.575 20.4288 20.496 20.5874 20.3376C20.7459 20.1793 20.825 19.9818 20.825 19.7503C20.825 19.5189 20.7459 19.3213 20.5874 19.1627C20.4289 19.0041 20.2314 18.925 20 18.925H5.05768C5.00415 18.925 4.95189 18.9036 4.89916 18.8508C4.8464 18.7981 4.82495 18.7458 4.82495 18.6923V3.74998C4.82495 3.51863 4.74597 3.32114 4.58764 3.16262C4.42928 3.00408 4.23178 2.925 4.0003 2.925C3.76884 2.925 3.57126 3.00408 3.41268 3.16258ZM11.6381 17.0542L11.6911 17.0012L11.6381 17.0542C11.8187 17.2348 12.0436 17.3249 12.3077 17.3249H13.5384C13.8134 17.3249 14.0474 17.2311 14.2354 17.0431L14.1824 16.9901L14.2354 17.0431C14.4234 16.8551 14.5173 16.6211 14.5173 16.3461V4.96152C14.5173 4.69745 14.4271 4.47254 14.2465 4.29192C14.0659 4.11129 13.8409 4.02115 13.5769 4.02115H12.3462C12.0712 4.02115 11.8371 4.11499 11.6491 4.30299C11.4612 4.49099 11.3673 4.72503 11.3673 5V16.3846C11.3673 16.6486 11.4575 16.8736 11.6381 17.0542ZM6.88809 17.0542C7.06872 17.2348 7.29363 17.3249 7.5577 17.3249H8.78842C9.06329 17.3249 9.29729 17.2316 9.48531 17.0445C9.67346 16.8572 9.76725 16.6231 9.76725 16.3474V10.0026C9.76725 9.72694 9.67347 9.4923 9.48551 9.30379C9.29753 9.11527 9.06346 9.02115 8.78842 9.02115H7.5577C7.29363 9.02115 7.06872 9.11129 6.88809 9.29192C6.70747 9.47254 6.61733 9.69745 6.61733 9.96152V16.3846C6.61733 16.6486 6.70747 16.8736 6.88809 17.0542ZM16.3881 17.0542C16.5687 17.2348 16.7936 17.3249 17.0577 17.3249H18.2884C18.5634 17.3249 18.7974 17.2311 18.9854 17.0431C19.1734 16.8551 19.2672 16.6211 19.2672 16.3461V13.9615C19.2672 13.6975 19.1771 13.4725 18.9965 13.2919C18.8158 13.1113 18.5909 13.0212 18.3269 13.0212H17.0961C16.8212 13.0212 16.5871 13.115 16.3991 13.303C16.2111 13.491 16.1173 13.725 16.1173 14V16.3846C16.1173 16.6486 16.2074 16.8736 16.3881 17.0542Z" fill="#B2B7BF" stroke="#B2B7BF" stroke-width="0.15"/>
</g>
</svg>
