<svg width="24" height="24" viewBox="0 0 24 24" fill="none" xmlns="http://www.w3.org/2000/svg">
<mask id="mask0_1442_402" style="mask-type:alpha" maskUnits="userSpaceOnUse" x="0" y="0" width="24" height="24">
<rect width="24" height="24" fill="#D9D9D9"/>
</mask>
<g mask="url(#mask0_1442_402)">
<path d="M5.05768 20.5C4.55254 20.5 4.12498 20.325 3.775 19.975C3.425 19.625 3.25 19.1974 3.25 18.6923V3.74998C3.25 3.53749 3.3219 3.35938 3.4657 3.21563C3.60952 3.07188 3.78772 3 4.0003 3C4.2129 3 4.39099 3.07188 4.53457 3.21563C4.67816 3.35938 4.74995 3.53749 4.74995 3.74998V18.6923C4.74995 18.7692 4.78201 18.8397 4.84612 18.9038C4.91022 18.9679 4.98074 19 5.05768 19H20C20.2125 19 20.3906 19.0719 20.5344 19.2157C20.6781 19.3595 20.75 19.5377 20.75 19.7503C20.75 19.9629 20.6781 20.141 20.5344 20.2846C20.3906 20.4282 20.2125 20.5 20 20.5H5.05768ZM7.5577 17.2499C7.31252 17.2499 7.10699 17.167 6.94113 17.0012C6.77526 16.8353 6.69233 16.6298 6.69233 16.3846V9.96152C6.69233 9.71634 6.77526 9.51082 6.94113 9.34495C7.10699 9.17908 7.31252 9.09615 7.5577 9.09615H8.78842C9.04451 9.09615 9.25917 9.18302 9.4324 9.35675C9.60563 9.53048 9.69225 9.74576 9.69225 10.0026V16.3474C9.69225 16.6042 9.60563 16.8189 9.4324 16.9913C9.25917 17.1637 9.04451 17.2499 8.78842 17.2499H7.5577ZM12.3077 17.2499C12.0625 17.2499 11.857 17.167 11.6911 17.0012C11.5253 16.8353 11.4423 16.6298 11.4423 16.3846V5C11.4423 4.74392 11.5289 4.52926 11.7022 4.35603C11.8754 4.18278 12.0901 4.09615 12.3462 4.09615H13.5769C13.8221 4.09615 14.0276 4.17908 14.1935 4.34495C14.3593 4.51082 14.4423 4.71634 14.4423 4.96152V16.3461C14.4423 16.6022 14.3556 16.8169 14.1824 16.9901C14.0092 17.1633 13.7945 17.2499 13.5384 17.2499H12.3077ZM17.0577 17.2499C16.8125 17.2499 16.607 17.167 16.4411 17.0012C16.2752 16.8353 16.1923 16.6298 16.1923 16.3846V14C16.1923 13.7439 16.2789 13.5293 16.4521 13.356C16.6254 13.1828 16.84 13.0962 17.0961 13.0962H18.3269C18.572 13.0962 18.7776 13.1791 18.9434 13.345C19.1093 13.5108 19.1922 13.7163 19.1922 13.9615V16.3461C19.1922 16.6022 19.1056 16.8169 18.9324 16.9901C18.7591 17.1633 18.5445 17.2499 18.2884 17.2499H17.0577Z" fill="#1C1B1F"/>
</g>
</svg>
