<svg width="24" height="24" viewBox="0 0 24 24" fill="none" xmlns="http://www.w3.org/2000/svg">
<mask id="mask0_1539_755" style="mask-type:alpha" maskUnits="userSpaceOnUse" x="-1" y="-1" width="26" height="26">
<rect x="-0.075" y="-0.075" width="24.15" height="24.15" fill="#D9D9D9" stroke="#363A40" stroke-width="0.15"/>
</mask>
<g mask="url(#mask0_1539_755)">
<path d="M5.94312 4.94312L5.99615 4.99615L5.94312 4.94312C5.16446 5.7218 4.55021 6.63103 4.10042 7.67021C3.65002 8.71075 3.425 9.82092 3.425 11V17.6923C3.425 18.2168 3.60758 18.6636 3.97197 19.028C4.33635 19.3924 4.78313 19.575 5.3077 19.575H6.73073C7.24937 19.575 7.69439 19.3904 8.06163 19.0232C8.42887 18.6559 8.6134 18.2109 8.6134 17.6923V14.2308C8.6134 13.7121 8.42887 13.2671 8.06163 12.8998C7.69439 12.5326 7.24937 12.3481 6.73073 12.3481H5.07498V11C5.07498 9.08653 5.75041 7.45561 7.10301 6.10301C8.45561 4.75041 10.0865 4.07498 12 4.07498C13.9134 4.07498 15.5443 4.75041 16.8969 6.10301C18.2495 7.45561 18.925 9.08653 18.925 11V12.3481H17.2692C16.7506 12.3481 16.3056 12.5326 15.9383 12.8998C15.5711 13.2671 15.3866 13.7121 15.3866 14.2307V17.6922C15.3866 18.2109 15.5711 18.6559 15.9383 19.0231C16.3056 19.3904 16.7506 19.5749 17.2692 19.5749H18.925V20.3845C18.925 20.4566 18.9026 20.5105 18.8604 20.5527C18.8182 20.5948 18.7643 20.6172 18.6923 20.6172H12.75C12.5183 20.6172 12.3207 20.6962 12.1623 20.8546C12.0039 21.013 11.925 21.2106 11.925 21.4422C11.925 21.6739 12.0039 21.8715 12.1623 22.0299C12.3207 22.1883 12.5183 22.2672 12.75 22.2672H18.6923C19.2168 22.2672 19.6636 22.0846 20.028 21.7203C20.3924 21.3559 20.575 20.9091 20.575 20.3846V11C20.575 9.82092 20.3499 8.71075 19.8995 7.67021C19.4497 6.63103 18.8355 5.7218 18.0568 4.94312C17.2782 4.16446 16.3689 3.55021 15.3297 3.10042C14.2892 2.65002 13.179 2.425 12 2.425C10.8209 2.425 9.71075 2.65002 8.67021 3.10042C7.63103 3.55021 6.7218 4.16446 5.94312 4.94312ZM6.89887 14.0626L6.89887 14.0626C6.94103 14.1048 6.96345 14.1587 6.96345 14.2308V17.6923C6.96345 17.7643 6.94103 17.8182 6.89887 17.8604C6.8567 17.9026 6.80277 17.925 6.73073 17.925H5.3077C5.23566 17.925 5.18172 17.9026 5.13956 17.8604C5.09739 17.8182 5.07498 17.7643 5.07498 17.6923V13.9981H6.73073C6.80277 13.9981 6.8567 14.0205 6.89887 14.0626ZM18.925 13.9981V17.925H17.2692C17.1972 17.925 17.1432 17.9026 17.1011 17.8604C17.0589 17.8182 17.0365 17.7643 17.0365 17.6923V14.2308C17.0365 14.1587 17.0589 14.1048 17.1011 14.0626L17.1011 14.0626C17.1432 14.0205 17.1972 13.9981 17.2692 13.9981H18.925Z" fill="#24262B" stroke="#363A40" stroke-width="0.15"/>
</g>
</svg>
