<svg width="24" height="24" viewBox="0 0 24 24" fill="none" xmlns="http://www.w3.org/2000/svg">
<mask id="mask0_1539_764" style="mask-type:alpha" maskUnits="userSpaceOnUse" x="-1" y="-1" width="26" height="26">
<rect x="-0.075" y="-0.075" width="24.15" height="24.15" fill="#D9D9D9" stroke="#363A40" stroke-width="0.15"/>
</mask>
<g mask="url(#mask0_1539_764)">
<path d="M5.3077 20.575C4.78313 20.575 4.33635 20.3924 3.97197 20.028C3.60758 19.6636 3.425 19.2168 3.425 18.6923V5.3077C3.425 4.78313 3.60758 4.33635 3.97197 3.97197C4.33635 3.60758 4.78313 3.425 5.3077 3.425H11.2596C11.4912 3.425 11.6888 3.50397 11.8472 3.66236L5.3077 20.575ZM5.3077 20.575H11.2596C11.4912 20.575 11.6889 20.496 11.8472 20.3376C12.0056 20.1792 12.0846 19.9816 12.0846 19.75C12.0846 19.5183 12.0056 19.3207 11.8472 19.1623C11.6888 19.0039 11.4912 18.925 11.2596 18.925H5.3077C5.25418 18.925 5.20191 18.9035 5.14916 18.8508L5.3077 20.575ZM15.6942 9.32693L15.6412 9.37996L17.4363 11.175H9.84612C9.61448 11.175 9.41688 11.254 9.25849 11.4123C9.10009 11.5707 9.02112 11.7683 9.02112 12C9.02112 12.2316 9.10009 12.4292 9.25849 12.5876C9.41687 12.746 9.61448 12.825 9.84612 12.825H17.4363L15.6566 14.6046C15.4984 14.7628 15.4153 14.9541 15.4096 15.175C15.404 15.397 15.4819 15.594 15.6394 15.7627L15.6394 15.7627L15.6412 15.7645C15.8091 15.9324 16.0073 16.0199 16.2329 16.022C16.4582 16.0242 16.654 15.9424 16.8165 15.7799L19.9107 12.6857C20.1045 12.4918 20.2038 12.2622 20.2038 12C20.2038 11.7378 20.1045 11.5082 19.9107 11.3143L16.8165 8.22007C16.6478 8.05143 16.4476 7.96745 16.2193 7.97312C15.9921 7.97877 15.7976 8.06792 15.6394 8.23728L15.6394 8.23729C15.4822 8.4056 15.4032 8.6013 15.4068 8.8214C15.4103 9.03983 15.4887 9.22744 15.6412 9.37996L15.6942 9.32693Z" fill="#24262B" stroke="#363A40" stroke-width="0.15"/>
</g>
</svg>
