<svg width="25" height="24" viewBox="0 0 25 24" fill="none" xmlns="http://www.w3.org/2000/svg">
<mask id="mask0_1442_414" style="mask-type:alpha" maskUnits="userSpaceOnUse" x="0" y="0" width="25" height="24">
<rect x="0.666016" width="24" height="24" fill="#D9D9D9"/>
</mask>
<g mask="url(#mask0_1442_414)">
<path d="M10.666 11.6923C9.70062 11.6923 8.87595 11.3503 8.19197 10.6664C7.508 9.98239 7.16602 9.15773 7.16602 8.19236C7.16602 7.22698 7.508 6.4023 8.19197 5.71833C8.87595 5.03437 9.70062 4.69238 10.666 4.69238C11.6314 4.69238 12.456 5.03437 13.14 5.71833C13.824 6.4023 14.166 7.22698 14.166 8.19236C14.166 9.15773 13.824 9.98239 13.14 10.6664C12.456 11.3503 11.6314 11.6923 10.666 11.6923ZM3.16602 17.7885V17.0846C3.16602 16.5795 3.29487 16.1222 3.55257 15.7125C3.81025 15.3029 4.16986 14.986 4.63139 14.7616C5.46217 14.3475 6.35961 14.0017 7.32369 13.7241C8.28779 13.4465 9.40189 13.3078 10.666 13.3078H10.9583C11.0391 13.3078 11.1262 13.318 11.2198 13.3385C11.1186 13.5744 11.0349 13.8148 10.9689 14.0597C10.9028 14.3045 10.848 14.5539 10.8045 14.8077H10.666C9.51471 14.8077 8.49548 14.9401 7.60832 15.2048C6.72113 15.4696 5.95831 15.768 5.31984 16.1C5.09292 16.2218 4.92722 16.3641 4.82272 16.5269C4.71823 16.6898 4.66599 16.8757 4.66599 17.0846V17.8077H10.966C11.0403 18.0615 11.1368 18.3192 11.2554 18.5808C11.374 18.8423 11.5044 19.0846 11.6467 19.3077H4.68522C4.26343 19.3077 3.90479 19.1599 3.60929 18.8644C3.31377 18.5689 3.16602 18.2103 3.16602 17.7885ZM16.6698 19.4692L16.5487 18.7211C16.3102 18.6506 16.0859 18.5583 15.8756 18.4442C15.6653 18.3301 15.4653 18.1872 15.2756 18.0154L14.5314 18.2884C14.3724 18.3423 14.2192 18.3388 14.0718 18.2779C13.9243 18.217 13.8083 18.1205 13.7237 17.9884L13.591 17.7538C13.5064 17.6115 13.4759 17.4558 13.4997 17.2865C13.5234 17.1173 13.6013 16.9801 13.7333 16.875L14.3314 16.4C14.2596 16.141 14.2237 15.8859 14.2237 15.6346C14.2237 15.3833 14.2596 15.1282 14.3314 14.8692L13.7429 14.375C13.6109 14.2699 13.5314 14.1369 13.5045 13.976C13.4776 13.8151 13.5064 13.6635 13.591 13.5212L13.7391 13.2712C13.8237 13.1391 13.9388 13.0427 14.0843 12.9818C14.2298 12.9209 14.382 12.9174 14.541 12.9712L15.2756 13.2443C15.4589 13.0725 15.6573 12.9311 15.8708 12.8202C16.0843 12.7093 16.3102 12.6186 16.5487 12.5481L16.6698 11.7847C16.7006 11.6154 16.7795 11.4792 16.9064 11.376C17.0333 11.2728 17.1814 11.2212 17.3506 11.2212H17.616C17.7852 11.2212 17.9333 11.2754 18.0602 11.3837C18.1871 11.492 18.266 11.6308 18.2967 11.8L18.4083 12.5481C18.6467 12.6186 18.8727 12.7119 19.0861 12.8279C19.2996 12.9439 19.498 13.093 19.6813 13.275L20.3852 13.002C20.5544 12.9379 20.7153 12.9363 20.8679 12.9972C21.0204 13.0581 21.139 13.1597 21.2236 13.302L21.3659 13.5366C21.4506 13.6789 21.4794 13.833 21.4525 13.9991C21.4256 14.1651 21.3461 14.3006 21.214 14.4058L20.6255 14.9C20.6973 15.1385 20.7332 15.3885 20.7332 15.65C20.7332 15.9115 20.6973 16.1615 20.6255 16.4L21.2236 16.875C21.3557 16.9801 21.4336 17.1148 21.4573 17.2789C21.481 17.443 21.4506 17.5962 21.3659 17.7385L21.2179 17.9884C21.1332 18.1205 21.0198 18.217 20.8775 18.2779C20.7352 18.3388 20.5846 18.3423 20.4256 18.2884L19.6813 18.0154C19.4916 18.1872 19.2916 18.3301 19.0813 18.4442C18.8711 18.5583 18.6467 18.6506 18.4083 18.7211L18.2967 19.4846C18.266 19.6538 18.1871 19.79 18.0602 19.8932C17.9333 19.9964 17.7852 20.048 17.616 20.048H17.3506C17.1814 20.048 17.0333 19.9939 16.9064 19.8855C16.7795 19.7772 16.7006 19.6384 16.6698 19.4692ZM17.4737 17.5385C17.998 17.5385 18.4464 17.3522 18.8189 16.9798C19.1913 16.6074 19.3775 16.159 19.3775 15.6346C19.3775 15.1103 19.1913 14.6619 18.8189 14.2894C18.4464 13.917 17.998 13.7308 17.4737 13.7308C16.9493 13.7308 16.5009 13.917 16.1285 14.2894C15.7561 14.6619 15.5698 15.1103 15.5698 15.6346C15.5698 16.159 15.7561 16.6074 16.1285 16.9798C16.5009 17.3522 16.9493 17.5385 17.4737 17.5385ZM10.666 10.1924C11.216 10.1924 11.6868 9.99653 12.0785 9.60486C12.4702 9.21319 12.666 8.74236 12.666 8.19236C12.666 7.64236 12.4702 7.17153 12.0785 6.77986C11.6868 6.38819 11.216 6.19236 10.666 6.19236C10.116 6.19236 9.64516 6.38819 9.25349 6.77986C8.86182 7.17153 8.66599 7.64236 8.66599 8.19236C8.66599 8.74236 8.86182 9.21319 9.25349 9.60486C9.64516 9.99653 10.116 10.1924 10.666 10.1924Z" fill="#A5AAB3"/>
</g>
</svg>
