<svg width="24" height="24" viewBox="0 0 24 24" fill="none" xmlns="http://www.w3.org/2000/svg">
<mask id="mask0_1606_1413" style="mask-type:alpha" maskUnits="userSpaceOnUse" x="-1" y="-1" width="26" height="26">
<rect x="-0.075" y="-0.075" width="24.15" height="24.15" fill="#D9D9D9" stroke="#24262B" stroke-width="0.15"/>
</mask>
<g mask="url(#mask0_1606_1413)">
<path d="M19.925 7.57931V12.4461V12.6272L20.053 12.4992L21.553 10.9992L21.575 10.9772V10.9462V6.3077C21.575 5.79053 21.3899 5.34594 21.022 4.97799C20.654 4.61002 20.2094 4.425 19.6923 4.425H4.3077C3.79053 4.425 3.34595 4.61002 2.97799 4.97799L19.925 7.57931ZM19.925 7.57931L12.5282 12.3143C12.4884 12.3417 12.4231 12.3658 12.3434 12.3888C12.2595 12.413 12.1497 12.4387 12.0148 12.4658L12.0074 12.4673H12C11.91 12.4673 11.8209 12.4555 11.7327 12.432C11.6424 12.4081 11.5558 12.3688 11.4728 12.3149C11.4727 12.3149 11.4727 12.3148 11.4726 12.3148L4.07498 7.57931V17.6923C4.07498 17.7643 4.0974 17.8182 4.13956 17.8604C4.18172 17.9026 4.23566 17.925 4.3077 17.925H9.27498H9.30604L9.32801 17.9469L10.828 19.4469L10.956 19.575H10.775H4.30875C3.79131 19.575 3.34648 19.3899 2.97831 19.022C2.61013 18.654 2.425 18.2094 2.425 17.6923V6.3077C2.425 5.79054 2.61002 5.34595 2.97799 4.97799L19.925 7.57931ZM20.8085 14.3316L20.8615 14.3846L20.8085 14.3316L15.7192 19.4209L13.4491 17.1508C13.2901 16.9917 13.0953 16.9115 12.8692 16.9115C12.6431 16.9115 12.4483 16.9917 12.2892 17.1508C12.1297 17.3104 12.0513 17.5073 12.0548 17.7367C12.0583 17.9643 12.136 18.1574 12.2892 18.3107L15.0335 21.0549C15.2274 21.2488 15.457 21.348 15.7192 21.348C15.9814 21.348 16.211 21.2488 16.4049 21.0549L21.9684 15.4915C22.1274 15.3324 22.2076 15.1376 22.2076 14.9115C22.2076 14.6854 22.1274 14.4906 21.9684 14.3316C21.8088 14.172 21.6118 14.0936 21.3825 14.0971C21.1549 14.1006 20.9618 14.1783 20.8085 14.3316ZM12 10.911L4.41108 6.07498H19.5889L12 10.911Z" fill="#24262B" stroke="#24262B" stroke-width="0.15"/>
</g>
</svg>
