<svg width="24" height="24" viewBox="0 0 24 24" fill="none" xmlns="http://www.w3.org/2000/svg">
<mask id="mask0_1502_2225" style="mask-type:alpha" maskUnits="userSpaceOnUse" x="-1" y="-1" width="26" height="26">
<rect x="-0.075" y="-0.075" width="24.15" height="24.15" fill="#D9D9D9" stroke="black" stroke-width="0.15"/>
</mask>
<g mask="url(#mask0_1502_2225)">
<path d="M5.11804 13.1124L5.11803 13.1124C4.81035 12.8047 4.65547 12.4325 4.65547 12C4.65547 11.5674 4.81035 11.1953 5.11803 10.8876L5.11804 10.8876C5.42574 10.5799 5.79789 10.425 6.23042 10.425C6.66297 10.425 7.03512 10.5799 7.3428 10.8876C7.3428 10.8876 7.3428 10.8876 7.3428 10.8876L7.28977 10.9406C7.58352 11.2344 7.73039 11.5875 7.73039 12C7.73039 12.4125 7.58352 12.7656 7.28977 13.0593L5.11804 13.1124ZM5.11804 13.1124C5.42574 13.4201 5.79789 13.575 6.23042 13.575C6.66297 13.575 7.03512 13.4201 7.3428 13.1124H5.11804ZM18.8813 13.1124L18.8282 13.0593L18.8813 13.1124C19.1889 12.8047 19.3438 12.4325 19.3438 12C19.3438 11.5674 19.1889 11.1953 18.8813 10.8876L18.8282 10.9406L18.8813 10.8876C18.5736 10.5799 18.2014 10.425 17.7689 10.425C17.3363 10.425 16.9642 10.5799 16.6565 10.8876C16.3488 11.1953 16.1939 11.5674 16.1939 12C16.1939 12.4325 16.3488 12.8047 16.6565 13.1124C16.9642 13.4201 17.3363 13.575 17.7689 13.575C18.2014 13.575 18.5736 13.4201 18.8813 13.1124ZM10.8873 13.1124C11.195 13.4201 11.5671 13.575 11.9996 13.575C12.4322 13.575 12.8043 13.4201 13.112 13.1124C13.4197 12.8047 13.5746 12.4325 13.5746 12C13.5746 11.5674 13.4197 11.1953 13.112 10.8876C12.8043 10.5799 12.4322 10.425 11.9996 10.425C11.5671 10.425 11.195 10.5799 10.8873 10.8876C10.5796 11.1953 10.4247 11.5674 10.4247 12C10.4247 12.4325 10.5796 12.8047 10.8873 13.1124Z" fill="#24262B" stroke="#24262B" stroke-width="0.15"/>
</g>
</svg>
