<svg width="24" height="24" viewBox="0 0 24 24" fill="none" xmlns="http://www.w3.org/2000/svg">
<mask id="mask0_1663_1004" style="mask-type:alpha" maskUnits="userSpaceOnUse" x="0" y="0" width="24" height="24">
<rect width="24" height="24" fill="#D9D9D9"/>
</mask>
<g mask="url(#mask0_1663_1004)">
<path d="M15.4803 8.45344C16.0298 9.00214 16.6983 9.27712 17.4816 9.27712C18.2649 9.27712 18.933 9.00172 19.4818 8.45222C20.0305 7.90276 20.3054 7.23423 20.3054 6.451C20.3054 5.66773 20.03 4.99954 19.4805 4.45083C18.9311 3.90214 18.2625 3.62715 17.4793 3.62715C16.6961 3.62715 16.0279 3.90254 15.4791 4.45203C14.9305 5.00149 14.6555 5.67002 14.6555 6.45325C14.6555 7.23653 14.9309 7.90473 15.4803 8.45344Z" fill="#F1333A" stroke="#F1333A" stroke-width="0.15"/>
<path d="M10.1923 19.8096H10.1173V19.8846C10.1173 20.4017 10.3019 20.8463 10.669 21.2142C11.0362 21.5822 11.4807 21.7673 11.9983 21.7673C12.5158 21.7673 12.9608 21.5827 13.3291 21.2156C13.6975 20.8483 13.8827 20.4033 13.8827 19.8846V19.8096H13.8077H10.1923ZM16.1173 17.3096H7.88265V9.92305C7.88265 8.78524 8.28405 7.81618 9.08858 7.01166C9.8931 6.20712 10.8622 5.80573 12 5.80573C12.1221 5.80573 12.2351 5.81323 12.3393 5.82805C12.4464 5.8433 12.5564 5.8611 12.6693 5.88146L12.7519 5.89636L12.7575 5.8126C12.7789 5.48889 12.8368 5.17684 12.9311 4.87628L12.8596 4.85383L12.9311 4.87628C13.0257 4.57494 13.1538 4.2783 13.3156 3.98633L13.325 3.96937V3.94998V3.75C13.325 3.38307 13.1954 3.06877 12.9376 2.81151C12.6798 2.55429 12.3654 2.425 11.9988 2.425C11.6323 2.425 11.3182 2.55429 11.0612 2.81159C10.8041 3.06887 10.675 3.38314 10.675 3.75V4.31317C9.38377 4.61203 8.32275 5.27767 7.49441 6.30878C6.65342 7.35564 6.2327 8.56137 6.2327 9.92305V17.3096H5.25C5.01864 17.3096 4.82114 17.3886 4.66262 17.5469C4.50408 17.7053 4.425 17.9028 4.425 18.1343C4.425 18.3657 4.50408 18.5633 4.66258 18.7219L4.71563 18.6689L4.66258 18.7219C4.82109 18.8805 5.0186 18.9596 5.25 18.9596H18.75C18.9813 18.9596 19.1788 18.8806 19.3373 18.7223C19.4959 18.5639 19.575 18.3664 19.575 18.1349C19.575 17.9035 19.4959 17.7059 19.3374 17.5473L19.2843 17.6003L19.3374 17.5473C19.1789 17.3887 18.9813 17.3096 18.75 17.3096H17.7672V11.3846V11.3078L17.6904 11.3096C17.4352 11.3159 17.1826 11.2964 16.9326 11.2512C16.6812 11.2057 16.4429 11.1427 16.2176 11.0621L16.1173 11.0262V11.1327V17.3096Z" fill="#24262B" stroke="#24262B" stroke-width="0.15"/>
</g>
</svg>
