<svg width="24" height="24" viewBox="0 0 24 24" fill="none" xmlns="http://www.w3.org/2000/svg">
<mask id="mask0_1442_661" style="mask-type:alpha" maskUnits="userSpaceOnUse" x="0" y="0" width="24" height="24">
<rect width="24" height="24" fill="#D9D9D9"/>
</mask>
<g mask="url(#mask0_1442_661)">
<path d="M6.2327 17.3096H5.25C5.01864 17.3096 4.82114 17.3886 4.66262 17.5469C4.50408 17.7053 4.425 17.9028 4.425 18.1343C4.425 18.3657 4.50408 18.5633 4.66258 18.7219L4.71563 18.6689L4.66258 18.7219C4.82109 18.8805 5.0186 18.9596 5.25 18.9596H18.75C18.9813 18.9596 19.1788 18.8806 19.3373 18.7223C19.4959 18.5639 19.575 18.3664 19.575 18.1349C19.575 17.9035 19.4959 17.7059 19.3374 17.5473L19.2843 17.6003L19.3374 17.5473C19.1789 17.3887 18.9813 17.3096 18.75 17.3096H17.7672V9.92305C17.7672 8.56137 17.3465 7.35564 16.5055 6.30878C15.6772 5.27767 14.6162 4.61203 13.325 4.31317V3.75C13.325 3.38307 13.1954 3.06877 12.9376 2.81151C12.6798 2.55429 12.3654 2.425 11.9988 2.425C11.6323 2.425 11.3182 2.55429 11.0612 2.81159C10.8041 3.06887 10.675 3.38314 10.675 3.75V4.31317C9.38377 4.61203 8.32275 5.27767 7.49441 6.30878C6.65342 7.35564 6.2327 8.56137 6.2327 9.92305V17.3096ZM10.1923 19.8096H10.1173V19.8846C10.1173 20.4017 10.3019 20.8463 10.669 21.2142C11.0362 21.5822 11.4807 21.7673 11.9983 21.7673C12.5158 21.7673 12.9608 21.5827 13.3291 21.2156C13.6975 20.8483 13.8827 20.4033 13.8827 19.8846V19.8096H13.8077H10.1923ZM16.1173 17.3096H7.88265V9.92305C7.88265 8.78524 8.28405 7.81618 9.08858 7.01166C9.8931 6.20712 10.8622 5.80573 12 5.80573C13.1378 5.80573 14.1068 6.20712 14.9114 7.01166C15.7159 7.81618 16.1173 8.78524 16.1173 9.92305V17.3096Z" fill="#1C1B1F" stroke="black" stroke-width="0.15"/>
</g>
</svg>
