<svg width="20" height="20" viewBox="0 0 20 20" fill="none" xmlns="http://www.w3.org/2000/svg">
<path fill-rule="evenodd" clip-rule="evenodd" d="M5 2H9.98816L16 8.01184V10.1C15.6769 10.0344 15.3425 10 15 10C12.2386 10 10 12.2386 10 15C10 16.1256 10.3719 17.1643 10.9996 18H5C4.44772 18 4 17.5523 4 17V3C4 2.44772 4.44772 2 5 2Z" fill="#C2C8D1"/>
<path fill-rule="evenodd" clip-rule="evenodd" d="M10 2V6.98816C10 7.54044 10.4477 7.98816 11 7.98816H15.9882L10 2Z" fill="#6B6F78"/>
<path d="M14.0835 16.9791L15.0001 16.0625L15.9168 16.9583C16.0696 17.1111 16.2467 17.1875 16.448 17.1875C16.6494 17.1875 16.8265 17.1111 16.9793 16.9583C17.1321 16.8055 17.2085 16.6319 17.2085 16.4375C17.2085 16.243 17.1321 16.0694 16.9793 15.9166L16.0626 15L16.9793 14.0833C17.1321 13.9305 17.2085 13.7534 17.2085 13.552C17.2085 13.3507 17.1321 13.1736 16.9793 13.0208C16.8265 12.868 16.6494 12.7916 16.448 12.7916C16.2467 12.7916 16.0696 12.868 15.9168 13.0208L15.0001 13.9375L14.1043 13.0208C13.9515 12.868 13.7744 12.7916 13.573 12.7916C13.3717 12.7916 13.1946 12.868 13.0418 13.0208C12.889 13.1736 12.8092 13.3507 12.8022 13.552C12.7953 13.7534 12.8682 13.9305 13.021 14.0833L13.9376 15L13.0418 15.8958C12.889 16.0486 12.8126 16.2257 12.8126 16.427C12.8126 16.6284 12.889 16.8055 13.0418 16.9583C13.1946 17.1111 13.3682 17.1909 13.5626 17.1979C13.7571 17.2048 13.9307 17.1319 14.0835 16.9791Z" fill="#F1333A"/>
</svg>
