<svg width="25" height="24" viewBox="0 0 25 24" fill="none" xmlns="http://www.w3.org/2000/svg">
<mask id="mask0_1535_249" style="mask-type:alpha" maskUnits="userSpaceOnUse" x="0" y="0" width="25" height="24">
<rect x="0.0410156" width="24" height="24" fill="#D9D9D9"/>
</mask>
<g mask="url(#mask0_1535_249)">
<path d="M11.041 21.725V12.575L3.04102 7.95V15.975C3.04102 16.3417 3.12852 16.675 3.30352 16.975C3.47852 17.275 3.72435 17.5167 4.04102 17.7L11.041 21.725ZM13.041 21.725L20.041 17.7C20.3577 17.5167 20.6035 17.275 20.7785 16.975C20.9535 16.675 21.041 16.3417 21.041 15.975V7.95L13.041 12.575V21.725ZM17.016 7.975L19.966 6.25L13.041 2.275C12.7243 2.09167 12.391 2 12.041 2C11.691 2 11.3577 2.09167 11.041 2.275L9.06602 3.4L17.016 7.975ZM12.041 10.85L15.016 9.15L7.09102 4.55L4.09102 6.275L12.041 10.85Z" fill="#24262B"/>
</g>
</svg>
