<svg width="25" height="24" viewBox="0 0 25 24" fill="none" xmlns="http://www.w3.org/2000/svg">
<mask id="mask0_1442_408" style="mask-type:alpha" maskUnits="userSpaceOnUse" x="0" y="0" width="25" height="24">
<rect x="0.708984" width="24" height="24" fill="#D9D9D9"/>
</mask>
<g mask="url(#mask0_1442_408)">
<path d="M11.959 19.569V12.4305L5.70896 8.81125V15.7766C5.70896 15.8279 5.72178 15.876 5.74743 15.9209C5.77307 15.9658 5.81153 16.0042 5.86281 16.0363L11.959 19.569ZM13.4589 19.569L19.5551 16.0363C19.6064 16.0042 19.6449 15.9658 19.6705 15.9209C19.6961 15.876 19.709 15.8279 19.709 15.7766V8.81125L13.4589 12.4305V19.569ZM11.8051 21.2055L5.11283 17.3536C4.82822 17.1895 4.60643 16.9702 4.44746 16.6959C4.28848 16.4215 4.20898 16.1202 4.20898 15.792V8.20743C4.20898 7.87923 4.28848 7.57795 4.44746 7.3036C4.60643 7.02924 4.82822 6.81 5.11283 6.6459L11.8051 2.794C12.0897 2.6299 12.391 2.54785 12.709 2.54785C13.0269 2.54785 13.3282 2.6299 13.6128 2.794L20.3051 6.6459C20.5897 6.81 20.8115 7.02924 20.9705 7.3036C21.1294 7.57795 21.2089 7.87923 21.2089 8.20743V15.792C21.2089 16.1202 21.1294 16.4215 20.9705 16.6959C20.8115 16.9702 20.5897 17.1895 20.3051 17.3536L13.6128 21.2055C13.3282 21.3696 13.0269 21.4516 12.709 21.4516C12.391 21.4516 12.0897 21.3696 11.8051 21.2055ZM16.5647 8.89975L18.884 7.56898L12.8628 4.08628C12.8115 4.05423 12.7602 4.0382 12.709 4.0382C12.6577 4.0382 12.6064 4.05423 12.5551 4.08628L10.3839 5.33628L16.5647 8.89975ZM12.709 11.1382L15.034 9.79205L8.85896 6.2228L6.53393 7.56898L12.709 11.1382Z" fill="#A5AAB3"/>
</g>
</svg>
