<svg width="20" height="20" viewBox="0 0 20 20" fill="none" xmlns="http://www.w3.org/2000/svg">
<mask id="mask0_1663_576" style="mask-type:alpha" maskUnits="userSpaceOnUse" x="0" y="0" width="20" height="20">
<rect width="20" height="20" fill="#D9D9D9"/>
</mask>
<g mask="url(#mask0_1663_576)">
<path d="M15.6431 11.5C15.8543 11.5 16.0329 11.4285 16.1787 11.2856C16.3245 11.1427 16.3975 10.9656 16.3975 10.7544C16.3975 10.5431 16.326 10.3646 16.1831 10.2188C16.0402 10.0729 15.8631 10 15.6519 10C15.4406 10 15.262 10.0715 15.1162 10.2144C14.9704 10.3573 14.8975 10.5344 14.8975 10.7456C14.8975 10.9569 14.9689 11.1354 15.1118 11.2812C15.2547 11.4271 15.4318 11.5 15.6431 11.5ZM15.7444 18.2219L15.0016 17.4792C14.9877 17.4653 14.953 17.3829 14.8975 17.232V13.875C14.3141 13.7222 13.835 13.4028 13.46 12.9167C13.085 12.4306 12.8975 11.8737 12.8975 11.246C12.8975 10.4876 13.1664 9.84031 13.7042 9.30419C14.242 8.76806 14.8913 8.5 15.6521 8.5C16.4129 8.5 17.0607 8.76845 17.5954 9.30535C18.1301 9.84226 18.3975 10.4905 18.3975 11.25C18.3975 11.8413 18.2263 12.367 17.8839 12.8269C17.5416 13.2869 17.1086 13.6154 16.585 13.8125L17.2457 14.4732C17.3191 14.5466 17.3558 14.6389 17.3558 14.75C17.3558 14.8611 17.3198 14.9527 17.2478 15.0246L16.6721 15.6004C16.6001 15.6723 16.5641 15.7639 16.5641 15.875C16.5641 15.9861 16.6001 16.0777 16.6721 16.1496L17.2478 16.7254C17.3198 16.7973 17.3558 16.8889 17.3558 17C17.3558 17.1111 17.3193 17.2031 17.2464 17.276L16.2985 18.224C16.2256 18.2969 16.1336 18.3333 16.0225 18.3333C15.9113 18.3333 15.8187 18.2962 15.7444 18.2219Z" fill="#7000FF"/>
<path d="M4.5 16C4.0875 16 3.73437 15.8531 3.44062 15.5594C3.14687 15.2656 3 14.9125 3 14.5V14C3 13.6806 3.08681 13.3785 3.26042 13.0938C3.43403 12.809 3.67361 12.5694 3.97917 12.375C4.74306 11.9306 5.55112 11.5903 6.40335 11.3542C7.25559 11.1181 8.12114 11 9 11C9.33333 11 9.66667 11.0174 10 11.0521C10.3333 11.0868 10.6667 11.1389 11 11.2083C10.9861 11.8472 11.1181 12.4549 11.3958 13.0312C11.6736 13.6076 12.0556 14.1007 12.5417 14.5103V16H4.5ZM9 10C8.16667 10 7.45833 9.70833 6.875 9.125C6.29167 8.54167 6 7.83333 6 7C6 6.16667 6.29167 5.45833 6.875 4.875C7.45833 4.29167 8.16667 4 9 4C9.83333 4 10.5417 4.29167 11.125 4.875C11.7083 5.45833 12 6.16667 12 7C12 7.83333 11.7083 8.54167 11.125 9.125C10.5417 9.70833 9.83333 10 9 10Z" fill="#6B6F78"/>
</g>
</svg>
