<svg width="20" height="20" viewBox="0 0 20 20" fill="none" xmlns="http://www.w3.org/2000/svg">
<mask id="mask0_1663_321" style="mask-type:alpha" maskUnits="userSpaceOnUse" x="0" y="0" width="20" height="20">
<rect width="20" height="20" fill="#D9D9D9"/>
</mask>
<g mask="url(#mask0_1663_321)">
<path d="M8 10C7.16667 10 6.45833 9.70833 5.875 9.125C5.29167 8.54167 5 7.83333 5 7C5 6.16667 5.29167 5.45833 5.875 4.875C6.45833 4.29167 7.16667 4 8 4C8.83333 4 9.54167 4.29167 10.125 4.875C10.7083 5.45833 11 6.16667 11 7C11 7.83333 10.7083 8.54167 10.125 9.125C9.54167 9.70833 8.83333 10 8 10ZM2 14.5V14.0833C2 13.7253 2.08681 13.3962 2.26042 13.096C2.43403 12.7959 2.67361 12.5556 2.97917 12.375C3.74306 11.9306 4.54861 11.5903 5.39583 11.3542C6.24306 11.1181 7.11111 11 8 11C8.88889 11 9.75694 11.1181 10.6042 11.3542C11.4514 11.5903 12.2569 11.9306 13.0208 12.375C13.3264 12.5556 13.566 12.7959 13.7396 13.096C13.9132 13.3962 14 13.7253 14 14.0833V14.5C14 14.9125 13.853 15.2656 13.5591 15.5594C13.2652 15.8531 12.9119 16 12.4992 16H3.4941C3.08137 16 2.72917 15.8531 2.4375 15.5594C2.14583 15.2656 2 14.9125 2 14.5Z" fill="#6B6F78"/>
<path d="M15.7188 8.28565C15.8646 8.42855 16.0431 8.5 16.2544 8.5C16.4656 8.5 16.6427 8.42708 16.7856 8.28125C16.9285 8.13542 17 7.95687 17 7.7456C17 7.53435 16.9271 7.35727 16.7812 7.21435C16.6354 7.07145 16.4569 7 16.2456 7C16.0344 7 15.8573 7.07292 15.7144 7.21875C15.5715 7.36458 15.5 7.54313 15.5 7.7544C15.5 7.96565 15.5729 8.14273 15.7188 8.28565Z" fill="#F1333A"/>
<path d="M15.7188 5.78438C15.8646 5.92813 16.0431 6 16.2544 6C16.4656 6 16.6427 5.92813 16.7856 5.78438C16.9285 5.64063 17 5.4625 17 5.25V2.75C17 2.5375 16.9271 2.35937 16.7812 2.21562C16.6354 2.07187 16.4569 2 16.2456 2C16.0344 2 15.8573 2.07187 15.7144 2.21562C15.5715 2.35937 15.5 2.5375 15.5 2.75V5.25C15.5 5.4625 15.5729 5.64063 15.7188 5.78438Z" fill="#F1333A"/>
</g>
</svg>
