<svg width="20" height="20" viewBox="0 0 20 20" fill="none" xmlns="http://www.w3.org/2000/svg">
<mask id="mask0_1663_388" style="mask-type:alpha" maskUnits="userSpaceOnUse" x="0" y="0" width="20" height="20">
<rect width="20" height="20" fill="#D9D9D9"/>
</mask>
<g mask="url(#mask0_1663_388)">
<path d="M5 4.49558V6H15V4.5C15 4.0875 14.8531 3.73438 14.5594 3.44063C14.2656 3.14688 13.9125 3 13.5 3H6.5C6.0875 3 5.73438 3.14583 5.44062 3.4375C5.14687 3.72917 5 4.08186 5 4.49558Z" fill="#C2C8D1"/>
<path d="M15.2188 16.7856C15.3646 16.9285 15.5431 17 15.7544 17C15.9656 17 16.1427 16.9271 16.2856 16.7812C16.4285 16.6354 16.5 16.4569 16.5 16.2456C16.5 16.0344 16.4271 15.8573 16.2812 15.7144C16.1354 15.5715 15.9569 15.5 15.7456 15.5C15.5344 15.5 15.3573 15.5729 15.2144 15.7188C15.0715 15.8646 15 16.0431 15 16.2544C15 16.4656 15.0729 16.6427 15.2188 16.7856Z" fill="#F1333A"/>
<path d="M15.2188 13.7844C15.3646 13.9281 15.5431 14 15.7544 14C15.9656 14 16.1427 13.9281 16.2856 13.7844C16.4285 13.6406 16.5 13.4625 16.5 13.25V10.25C16.5 10.0375 16.4271 9.85938 16.2812 9.71563C16.1354 9.57188 15.9569 9.5 15.7456 9.5C15.5344 9.5 15.3573 9.57188 15.2144 9.71563C15.0715 9.85938 15 10.0375 15 10.25V13.25C15 13.4625 15.0729 13.6406 15.2188 13.7844Z" fill="#F1333A"/>
<path d="M5.75 17C5.5375 17 5.35938 16.928 5.21563 16.784C5.07188 16.64 5 16.4615 5 16.2486V13.9945H2.75C2.5375 13.9945 2.35938 13.9225 2.21562 13.7785C2.07187 13.6345 2 13.4583 2 13.25V9C2 8.44444 2.19444 7.97222 2.58333 7.58333C2.97222 7.19444 3.44444 7 4 7H16C16.4675 7 16.8796 7.14236 17.2361 7.42708C17.5926 7.71181 17.8264 8.06944 17.9375 8.5H15.0071C14.5857 8.5 14.2292 8.64688 13.9375 8.94063C13.6458 9.23438 13.5 9.5875 13.5 10V12.5H6.5V15.5H13.5V17H5.75Z" fill="#6B6F78"/>
</g>
</svg>
