<svg width="16" height="16" viewBox="0 0 16 16" fill="none" xmlns="http://www.w3.org/2000/svg">
<mask id="mask0_1330_7806" style="mask-type:alpha" maskUnits="userSpaceOnUse" x="0" y="0" width="16" height="16">
<rect width="16" height="16" fill="#D9D9D9"/>
</mask>
<g mask="url(#mask0_1330_7806)">
<path d="M8.59961 7.49961V4.59961C8.59961 4.42961 8.54245 4.28711 8.42813 4.17211C8.31379 4.05711 8.17213 3.99961 8.00313 3.99961C7.83412 3.99961 7.69128 4.05711 7.57461 4.17211C7.45794 4.28711 7.39961 4.42961 7.39961 4.59961V7.74961C7.39961 7.8385 7.41628 7.91905 7.44961 7.99128C7.48294 8.0635 7.52739 8.12739 7.58294 8.18294L9.81371 10.4137C9.93764 10.5376 10.0802 10.5968 10.2413 10.5913C10.4024 10.5857 10.5441 10.5218 10.6663 10.3996C10.7885 10.2774 10.8496 10.1357 10.8496 9.97461C10.8496 9.8135 10.7866 9.67043 10.6607 9.54541L8.59961 7.49961ZM7.99961 14.3996C7.11765 14.3996 6.28883 14.2329 5.51314 13.8996C4.73745 13.5663 4.05794 13.1079 3.47461 12.5246C2.89128 11.9413 2.43294 11.261 2.09961 10.4836C1.76628 9.70632 1.59961 8.87576 1.59961 7.99198C1.59961 7.10818 1.76628 6.27739 2.09961 5.49961C2.43294 4.72183 2.89128 4.04405 3.47461 3.46628C4.05794 2.8885 4.73826 2.43294 5.51558 2.09961C6.2929 1.76628 7.12345 1.59961 8.00724 1.59961C8.89104 1.59961 9.72186 1.76761 10.4997 2.10361C11.2776 2.43961 11.9542 2.89561 12.5296 3.47161C13.105 4.04761 13.5605 4.72494 13.8961 5.50361C14.2318 6.28228 14.3996 7.11428 14.3996 7.99961C14.3996 8.88156 14.2329 9.71039 13.8996 10.4861C13.5663 11.2618 13.1107 11.9413 12.5329 12.5246C11.9552 13.1079 11.2767 13.5663 10.4974 13.8996C9.71819 14.2329 8.88559 14.3996 7.99961 14.3996ZM8.00756 13.1996C9.44619 13.1996 10.6712 12.6913 11.6826 11.6746C12.6939 10.6579 13.1996 9.43029 13.1996 7.99166C13.1996 6.55303 12.6939 5.32803 11.6826 4.31666C10.6712 3.30529 9.44619 2.79961 8.00756 2.79961C6.56893 2.79961 5.34128 3.30529 4.32461 4.31666C3.30794 5.32803 2.79961 6.55303 2.79961 7.99166C2.79961 9.43029 3.30794 10.6579 4.32461 11.6746C5.34128 12.6913 6.56893 13.1996 8.00756 13.1996Z" fill="#959AA3"/>
</g>
</svg>
