<svg width="24" height="24" viewBox="0 0 24 24" fill="none" xmlns="http://www.w3.org/2000/svg">
<mask id="mask0_1502_2221" style="mask-type:alpha" maskUnits="userSpaceOnUse" x="-1" y="-1" width="26" height="26">
<rect x="-0.075" y="-0.075" width="24.15" height="24.15" fill="#D9D9D9" stroke="#A5AAB3" stroke-width="0.15"/>
</mask>
<g mask="url(#mask0_1502_2221)">
<path d="M5.12819 13.8916C6.32716 15.0906 7.7925 15.6905 9.51965 15.6905C10.2231 15.6905 10.9041 15.5723 11.5623 15.3361C12.1972 15.1082 12.7622 14.7953 13.2568 14.3972L18.9628 20.1031C19.1218 20.2622 19.3166 20.3424 19.5427 20.3424C19.7688 20.3424 19.9636 20.2622 20.1227 20.1031C20.2823 19.9435 20.3606 19.7466 20.3571 19.5172C20.3536 19.2897 20.276 19.0965 20.1227 18.9432L14.4169 13.2375C14.8026 12.7611 15.1121 12.2058 15.3458 11.5722C15.5887 10.9137 15.71 10.2228 15.71 9.50012C15.71 7.77297 15.1101 6.30762 13.9111 5.10863C12.7121 3.90966 11.2468 3.30977 9.51965 3.30977C7.7925 3.30977 6.32716 3.90966 5.12819 5.10863C3.9292 6.30762 3.3293 7.77297 3.3293 9.50012C3.3293 11.2273 3.9292 12.6926 5.12819 13.8916ZM12.7407 12.7211C11.8608 13.601 10.7886 14.0405 9.51965 14.0405C8.25065 14.0405 7.1785 13.601 6.29863 12.7211C5.41877 11.8413 4.97927 10.7691 4.97927 9.50012C4.97927 8.23112 5.41877 7.15897 6.29863 6.2791C7.1785 5.39923 8.25065 4.95972 9.51965 4.95972C10.7886 4.95972 11.8608 5.39923 12.7407 6.2791C13.6205 7.15897 14.06 8.23112 14.06 9.50012C14.06 10.7691 13.6205 11.8413 12.7407 12.7211Z" fill="#24262B" stroke="#24262B" stroke-width="0.15"/>
</g>
</svg>
