<svg width="20" height="20" viewBox="0 0 20 20" fill="none" xmlns="http://www.w3.org/2000/svg">
<mask id="mask0_1595_368" style="mask-type:alpha" maskUnits="userSpaceOnUse" x="0" y="0" width="20" height="20">
<rect width="20" height="20" transform="matrix(-1 0 0 1 20 0)" fill="#D9D9D9"/>
</mask>
<g mask="url(#mask0_1595_368)">
<path d="M10 17C11.8333 17 13.4132 16.3924 14.7396 15.1771C16.066 13.9618 16.8125 12.4653 16.9792 10.6875C17.0069 10.4931 16.9444 10.3299 16.7917 10.1979C16.6389 10.066 16.4588 10 16.2513 10C16.056 10 15.8819 10.0556 15.7292 10.1667C15.5764 10.2778 15.4861 10.4306 15.4583 10.625C15.2917 12.0139 14.6944 13.1736 13.6667 14.1042C12.6389 15.0347 11.4167 15.5 10 15.5C8.46786 15.5 7.16816 14.9668 6.1009 13.9005C5.03363 12.8341 4.5 11.5355 4.5 10.0046C4.5 8.47376 5.03363 7.17361 6.1009 6.10417C7.16816 5.03472 8.46786 4.5 10 4.5C10.8194 4.5 11.5938 4.67708 12.3229 5.03125C13.0521 5.38542 13.6875 5.875 14.2292 6.5H12.75C12.5375 6.5 12.3594 6.57145 12.2156 6.71435C12.0719 6.85727 12 7.03435 12 7.2456C12 7.45687 12.0719 7.63542 12.2156 7.78125C12.3594 7.92708 12.5375 8 12.75 8H16.25C16.4625 8 16.6406 7.92813 16.7844 7.78438C16.9281 7.64063 17 7.4625 17 7.25V3.75C17 3.5375 16.9285 3.35937 16.7856 3.21562C16.6427 3.07187 16.4656 3 16.2544 3C16.0431 3 15.8646 3.07187 15.7188 3.21562C15.5729 3.35937 15.5 3.5375 15.5 3.75V5.70833C14.8346 4.84597 14.0224 4.17899 13.0634 3.7074C12.1045 3.2358 11.0833 3 10 3C9.02778 3 8.11713 3.18472 7.26806 3.55417C6.41898 3.92361 5.68009 4.42269 5.0514 5.0514C4.42269 5.68009 3.92361 6.41898 3.55417 7.26806C3.18472 8.11713 3 9.02778 3 10C3 10.9722 3.18472 11.8829 3.55417 12.7319C3.92361 13.581 4.42269 14.3199 5.0514 14.9486C5.68009 15.5773 6.41898 16.0764 7.26806 16.4458C8.11713 16.8153 9.02778 17 10 17Z" fill="#24262B"/>
</g>
</svg>
