<svg width="20" height="20" viewBox="0 0 20 20" fill="none" xmlns="http://www.w3.org/2000/svg">
<mask id="mask0_1663_685" style="mask-type:alpha" maskUnits="userSpaceOnUse" x="0" y="0" width="20" height="20">
<rect width="20" height="20" fill="#D9D9D9"/>
</mask>
<g mask="url(#mask0_1663_685)">
<path fill-rule="evenodd" clip-rule="evenodd" d="M7.93783 15.625L8.41699 18H11.6253L12.1045 15.625C12.4239 15.5139 12.7295 15.3715 13.0212 15.1979C13.3128 15.0243 13.5906 14.8264 13.8545 14.6042L16.1462 15.375L17.7503 12.6042L15.9378 11C15.9656 10.8333 15.9864 10.6667 16.0003 10.5C16.0142 10.3333 16.0212 10.1667 16.0212 10C16.0212 9.83333 16.0142 9.66667 16.0003 9.5C15.9864 9.33333 15.9656 9.16667 15.9378 9L17.7503 7.39583L16.1462 4.625L13.8545 5.39583C13.5906 5.17361 13.3128 4.97569 13.0212 4.80208C12.7295 4.62847 12.4239 4.48611 12.1045 4.375L11.6253 2H8.41699L7.93783 4.375C7.61838 4.48611 7.31283 4.62847 7.02116 4.80208C6.72949 4.97569 6.45171 5.17361 6.18783 5.39583L3.89616 4.60417L2.29199 7.375L4.10449 8.97917C4.07671 9.14583 4.05588 9.31597 4.04199 9.48958C4.0281 9.66319 4.02116 9.83333 4.02116 10C4.02116 10.1667 4.0281 10.3333 4.04199 10.5C4.05588 10.6667 4.07671 10.8333 4.10449 11L2.29199 12.6042L3.89616 15.375L6.18783 14.6042C6.45171 14.8264 6.72949 15.0243 7.02116 15.1979C7.31283 15.3715 7.61838 15.5139 7.93783 15.625ZM9.9956 10.75C10.2069 10.75 10.3854 10.6781 10.5312 10.5344C10.6771 10.3906 10.75 10.2125 10.75 10V7.5C10.75 7.2875 10.6785 7.10937 10.5356 6.96562C10.3927 6.82187 10.2156 6.75 10.0044 6.75C9.79313 6.75 9.61458 6.82187 9.46875 6.96562C9.32292 7.10937 9.25 7.2875 9.25 7.5V10C9.25 10.2125 9.32145 10.3906 9.46435 10.5344C9.60727 10.6781 9.78435 10.75 9.9956 10.75ZM9.9956 13.25C10.2069 13.25 10.3854 13.1785 10.5312 13.0356C10.6771 12.8927 10.75 12.7156 10.75 12.5044C10.75 12.2931 10.6785 12.1146 10.5356 11.9688C10.3927 11.8229 10.2156 11.75 10.0044 11.75C9.79313 11.75 9.61458 11.8215 9.46875 11.9644C9.32292 12.1073 9.25 12.2844 9.25 12.4956C9.25 12.7069 9.32145 12.8854 9.46435 13.0312C9.60727 13.1771 9.78435 13.25 9.9956 13.25Z" fill="#F1333A"/>
</g>
</svg>
