<svg width="20" height="20" viewBox="0 0 20 20" fill="none" xmlns="http://www.w3.org/2000/svg">
<mask id="mask0_1663_462" style="mask-type:alpha" maskUnits="userSpaceOnUse" x="0" y="0" width="20" height="20">
<rect width="20" height="20" fill="#D9D9D9"/>
</mask>
<g mask="url(#mask0_1663_462)">
<path d="M13.8755 11.7292L12.7921 10.6667C13.0143 10.375 13.181 10.0591 13.2921 9.71879C13.4032 9.37851 13.4588 9.02782 13.4588 8.66671C13.4588 8.33337 13.4067 8.01393 13.3025 7.70837C13.1984 7.40282 13.056 7.11115 12.8755 6.83337C12.7643 6.65282 12.7123 6.4549 12.7192 6.23962C12.7261 6.02435 12.806 5.84032 12.9588 5.68754C13.1116 5.53476 13.2921 5.46532 13.5005 5.47921C13.7088 5.4931 13.8685 5.58337 13.9796 5.75004C14.2991 6.1806 14.5421 6.6424 14.7088 7.13546C14.8755 7.62851 14.9588 8.13893 14.9588 8.66671C14.9588 9.22226 14.865 9.76046 14.6775 10.2813C14.49 10.8021 14.2227 11.2848 13.8755 11.7292ZM11.7505 9.62504L9.04212 6.91671C9.1949 6.83337 9.35115 6.77087 9.51087 6.72921C9.67059 6.68754 9.83379 6.66671 10.0005 6.66671C10.556 6.66671 11.0282 6.86115 11.4171 7.25004C11.806 7.63893 12.0005 8.11115 12.0005 8.66671C12.0005 8.83337 11.9796 8.99657 11.938 9.15629C11.8963 9.31601 11.8338 9.47226 11.7505 9.62504ZM16.0213 13.9167L14.9796 12.8334C15.4657 12.25 15.8407 11.6007 16.1046 10.8855C16.3685 10.1702 16.5005 9.4306 16.5005 8.66671C16.5005 7.91671 16.3789 7.2049 16.1359 6.53129C15.8928 5.85768 15.5491 5.22921 15.1046 4.64587C14.9657 4.47921 14.8998 4.29171 14.9067 4.08337C14.9136 3.87504 14.9935 3.69449 15.1463 3.54171C15.2991 3.38893 15.4761 3.31601 15.6775 3.32296C15.8789 3.3299 16.0421 3.40976 16.1671 3.56254C16.7505 4.28476 17.2018 5.0799 17.5213 5.94796C17.8407 6.81601 18.0005 7.72226 18.0005 8.66671C18.0005 9.63893 17.8338 10.5764 17.5005 11.4792C17.1671 12.382 16.6741 13.1945 16.0213 13.9167ZM16.188 18.2917L10.7505 12.8542V16.9167C10.7505 17.125 10.6775 17.3021 10.5317 17.448C10.3859 17.5938 10.2088 17.6667 10.0005 17.6667C9.79212 17.6667 9.61504 17.5938 9.4692 17.448C9.32337 17.3021 9.25045 17.125 9.25045 16.9167V11.3542L6.54212 8.64587C6.5699 8.97921 6.62893 9.3056 6.7192 9.62504C6.80948 9.94449 6.93795 10.2431 7.10462 10.5209C7.21573 10.7014 7.26781 10.8924 7.26087 11.0938C7.25393 11.2952 7.17406 11.4723 7.02129 11.625C6.86851 11.7778 6.69143 11.8542 6.49004 11.8542C6.28865 11.8542 6.1324 11.7709 6.02129 11.6042C5.70184 11.1737 5.45879 10.7084 5.29212 10.2084C5.12545 9.70837 5.04212 9.19449 5.04212 8.66671C5.04212 8.4306 5.05254 8.20143 5.07337 7.97921C5.0942 7.75699 5.14629 7.54171 5.22962 7.33337L4.02129 6.12504C3.84073 6.52782 3.70879 6.94101 3.62545 7.36462C3.54212 7.78824 3.50045 8.22226 3.50045 8.66671C3.50045 9.40282 3.62198 10.1077 3.86504 10.7813C4.10809 11.4549 4.45184 12.0834 4.89629 12.6667C5.03518 12.8334 5.10462 13.0209 5.10462 13.2292C5.10462 13.4375 5.02823 13.6181 4.87545 13.7709C4.72268 13.9237 4.54212 13.9966 4.33379 13.9896C4.12545 13.9827 3.95184 13.9028 3.81295 13.75C3.21573 13.0417 2.76434 12.2535 2.45879 11.3855C2.15323 10.5174 2.00045 9.61115 2.00045 8.66671C2.00045 8.02782 2.07337 7.39935 2.2192 6.78129C2.36504 6.16324 2.59073 5.56949 2.89629 5.00004L1.68795 3.79171C1.53518 3.63893 1.46226 3.46532 1.4692 3.27087C1.47615 3.07643 1.55601 2.90282 1.70879 2.75004C1.86156 2.59726 2.03518 2.52087 2.22962 2.52087C2.42406 2.52087 2.59768 2.59726 2.75045 2.75004L17.2505 17.25C17.4032 17.4028 17.4796 17.5764 17.4796 17.7709C17.4796 17.9653 17.4032 18.1389 17.2505 18.2917C17.0977 18.4445 16.9206 18.5209 16.7192 18.5209C16.5178 18.5209 16.3407 18.4445 16.188 18.2917Z" fill="#6B6F78"/>
</g>
</svg>
