<svg width="20" height="20" viewBox="0 0 20 20" fill="none" xmlns="http://www.w3.org/2000/svg">
<g clip-path="url(#clip0_1663_438)">
<mask id="mask0_1663_438" style="mask-type:alpha" maskUnits="userSpaceOnUse" x="0" y="0" width="20" height="20">
<rect width="20" height="20" fill="#D9D9D9"/>
</mask>
<g mask="url(#mask0_1663_438)">
<path d="M14.9953 19C13.8873 19 12.9444 18.6095 12.1667 17.8286C11.3889 17.0477 11 16.1033 11 14.9953C11 13.8873 11.3905 12.9444 12.1714 12.1667C12.9523 11.3889 13.8967 11 15.0047 11C16.1127 11 17.0556 11.3905 17.8333 12.1714C18.6111 12.9523 19 13.8967 19 15.0047C19 16.1127 18.6095 17.0556 17.8286 17.8333C17.0477 18.6111 16.1033 19 14.9953 19ZM16.1458 16.8542L16.8542 16.1458L15.5 14.7917V13H14.5V15.2083L16.1458 16.8542Z" fill="#7000FF"/>
</g>
<path d="M3 5.5C3 4.67157 3.67157 4 4.5 4H15.5C16.3284 4 17 4.67157 17 5.5V8.00056H3V5.5Z" fill="#6B6F78"/>
<rect x="6.00098" y="2.00122" width="1.5" height="3" fill="#6B6F78"/>
<rect x="12.5" y="2.00122" width="1.5" height="3" fill="#6B6F78"/>
<path fill-rule="evenodd" clip-rule="evenodd" d="M3 9H17V10.416C16.3875 10.1484 15.7111 10 15 10C12.2386 10 10 12.2386 10 15C10 16.1256 10.3719 17.1643 10.9996 18H4.5C3.67157 18 3 17.3284 3 16.5V9Z" fill="#C2C8D1"/>
</g>
<defs>
<clipPath id="clip0_1663_438">
<rect width="20" height="20" fill="white"/>
</clipPath>
</defs>
</svg>
